<svg id="visual" viewBox="0 0 960 540" width="960" height="540" xmlns="http://www.w3.org/2000/svg" xmlns:xlink="http://www.w3.org/1999/xlink" version="1.1"><rect x="0" y="0" width="960" height="540" fill="#505050"></rect><path d="M0 224L22.8 212.3C45.7 200.7 91.3 177.3 137 168.8C182.7 160.3 228.3 166.7 274 175C319.7 183.3 365.3 193.7 411.2 193C457 192.3 503 180.7 548.8 183C594.7 185.3 640.3 201.7 686 201C731.7 200.3 777.3 182.7 823 182.5C868.7 182.3 914.3 199.7 937.2 208.3L960 217L960 0L937.2 0C914.3 0 868.7 0 823 0C777.3 0 731.7 0 686 0C640.3 0 594.7 0 548.8 0C503 0 457 0 411.2 0C365.3 0 319.7 0 274 0C228.3 0 182.7 0 137 0C91.3 0 45.7 0 22.8 0L0 0Z" fill="#242424"></path><path d="M0 161L22.8 153.5C45.7 146 91.3 131 137 125.2C182.7 119.3 228.3 122.7 274 132.5C319.7 142.3 365.3 158.7 411.2 162.7C457 166.7 503 158.3 548.8 154.5C594.7 150.7 640.3 151.3 686 152.3C731.7 153.3 777.3 154.7 823 148.8C868.7 143 914.3 130 937.2 123.5L960 117L960 0L937.2 0C914.3 0 868.7 0 823 0C777.3 0 731.7 0 686 0C640.3 0 594.7 0 548.8 0C503 0 457 0 411.2 0C365.3 0 319.7 0 274 0C228.3 0 182.7 0 137 0C91.3 0 45.7 0 22.8 0L0 0Z" fill="#242424"></path><path d="M0 112L22.8 113.5C45.7 115 91.3 118 137 117.3C182.7 116.7 228.3 112.3 274 112.3C319.7 112.3 365.3 116.7 411.2 116.2C457 115.7 503 110.3 548.8 112.7C594.7 115 640.3 125 686 130C731.7 135 777.3 135 823 135.7C868.7 136.3 914.3 137.7 937.2 138.3L960 139L960 0L937.2 0C914.3 0 868.7 0 823 0C777.3 0 731.7 0 686 0C640.3 0 594.7 0 548.8 0C503 0 457 0 411.2 0C365.3 0 319.7 0 274 0C228.3 0 182.7 0 137 0C91.3 0 45.7 0 22.8 0L0 0Z" fill="#242424"></path><path d="M0 89L22.8 83C45.7 77 91.3 65 137 67.8C182.7 70.7 228.3 88.3 274 96.2C319.7 104 365.3 102 411.2 97.8C457 93.7 503 87.3 548.8 85.2C594.7 83 640.3 85 686 81.2C731.7 77.3 777.3 67.7 823 63.3C868.7 59 914.3 60 937.2 60.5L960 61L960 0L937.2 0C914.3 0 868.7 0 823 0C777.3 0 731.7 0 686 0C640.3 0 594.7 0 548.8 0C503 0 457 0 411.2 0C365.3 0 319.7 0 274 0C228.3 0 182.7 0 137 0C91.3 0 45.7 0 22.8 0L0 0Z" fill="#242424"></path><path d="M0 27L22.8 29.3C45.7 31.7 91.3 36.3 137 39.2C182.7 42 228.3 43 274 45.2C319.7 47.3 365.3 50.7 411.2 47.7C457 44.7 503 35.3 548.8 35C594.7 34.7 640.3 43.3 686 46.8C731.7 50.3 777.3 48.7 823 50.5C868.7 52.3 914.3 57.7 937.2 60.3L960 63L960 0L937.2 0C914.3 0 868.7 0 823 0C777.3 0 731.7 0 686 0C640.3 0 594.7 0 548.8 0C503 0 457 0 411.2 0C365.3 0 319.7 0 274 0C228.3 0 182.7 0 137 0C91.3 0 45.7 0 22.8 0L0 0Z" fill="#242424"></path></svg>